<svg version="1.1" id="Layer_1" xmlns="http://www.w3.org/2000/svg" xmlns:xlink="http://www.w3.org/1999/xlink" x="0px" y="0px"
	 width="100%" viewBox="0 0 722 622" enable-background="new 0 0 722 622" xml:space="preserve">
<path fill="#0F0F0F" opacity="1.000000" stroke="none" 
	d="
M357.000000,623.000000 
	C238.000000,623.000000 119.500000,623.000000 1.000000,623.000000 
	C1.000000,415.666656 1.000000,208.333328 1.000000,1.000000 
	C241.666672,1.000000 482.333344,1.000000 723.000000,1.000000 
	C723.000000,208.333328 723.000000,415.666656 723.000000,623.000000 
	C601.166687,623.000000 479.333344,623.000000 357.000000,623.000000 
M140.147095,458.741821 
	C142.027435,459.493561 143.893600,460.846863 145.790588,460.891479 
	C153.473648,461.072235 161.111069,461.392853 168.601105,458.303040 
	C171.453400,457.126373 172.284882,456.216248 171.809860,453.237488 
	C171.809860,453.237488 172.047073,453.010101 172.754578,452.800171 
	C173.662186,446.613495 178.050278,446.766083 182.882233,446.789612 
	C211.294678,446.927887 239.708374,446.922241 268.120941,446.801086 
	C272.584198,446.782074 276.245392,446.785004 275.258362,452.894531 
	C275.158539,453.512573 276.289734,454.329437 277.032898,455.186401 
	C277.032898,455.186401 277.249512,455.251221 277.585144,455.938873 
	C279.783661,456.972137 281.970764,458.846436 284.182892,458.876434 
	C290.147858,458.957306 296.183228,458.648956 302.080292,457.761719 
	C309.992279,456.571320 312.871979,452.743347 312.876678,444.832458 
	C312.888306,425.170258 313.024078,405.506744 312.820862,385.846741 
	C312.771515,381.076080 313.552094,377.200684 317.285431,373.866455 
	C318.750793,372.557739 321.718445,370.537567 318.363739,367.135223 
	C317.260345,366.377167 316.156982,365.619080 314.747772,364.261566 
	C312.961456,363.072906 311.216736,361.815308 309.381226,360.708252 
	C303.422119,357.114410 297.517365,353.213837 289.579742,355.520203 
	C283.299316,357.074463 277.814850,360.572357 270.685089,360.226624 
	C250.615906,359.253571 230.493500,359.425964 210.396378,358.960632 
	C200.810196,358.738647 191.164719,361.042572 181.607758,358.127045 
	C179.871277,357.597321 177.717804,358.484039 175.751144,358.649048 
	C171.354660,359.018005 166.954590,359.344543 162.555939,359.687805 
	C161.033035,359.806671 159.509995,359.923920 157.120880,360.136139 
	C152.080795,359.764740 147.040726,359.393311 141.240067,358.802643 
	C140.153732,358.648315 139.067398,358.493988 137.628632,358.289581 
	C139.557739,352.959808 141.353531,347.998322 143.994995,342.962891 
	C152.442108,342.586273 160.887848,341.925842 169.336609,341.884491 
	C198.490189,341.741760 227.644928,341.774750 256.798859,341.862244 
	C260.067078,341.872040 263.333008,342.656250 266.951141,343.714966 
	C267.992889,344.491089 269.032410,345.934937 270.076721,345.938416 
	C278.992798,345.967987 288.116241,346.998016 296.311859,342.154022 
	C300.105377,339.911865 302.172607,336.905121 302.070618,332.014771 
	C301.775421,317.857788 302.181213,303.686798 301.934814,289.527863 
	C301.838745,284.005981 302.181610,279.069122 306.781311,275.204346 
	C309.953278,272.539215 308.726959,269.926758 305.872559,267.897888 
	C301.946564,265.107269 297.800812,262.619354 293.937866,259.747955 
	C287.632843,255.061340 281.659424,256.416840 275.480896,260.034515 
	C273.140320,261.404938 270.379822,262.887573 267.803314,262.901031 
	C230.312241,263.096710 192.818695,263.216431 155.328690,262.945374 
	C146.234344,262.879608 137.153168,261.309326 128.061096,260.484131 
	C123.365067,260.057983 118.658424,259.748718 114.033150,259.392548 
	C119.038460,328.870636 106.909203,392.259644 58.590431,445.018646 
	C59.025368,445.305786 59.460304,445.592896 59.895241,445.880005 
	C64.559250,443.168732 69.223259,440.457489 74.324516,438.345398 
	C76.052399,440.479858 79.888626,435.953339 81.123207,440.906128 
	C82.743118,447.404846 87.275276,449.597748 93.671936,447.118195 
	C98.749214,445.150055 103.927673,442.883179 108.252914,439.663177 
	C115.099045,434.566528 122.944740,429.994354 122.551491,419.288055 
	C122.330170,413.262634 125.400879,408.282043 131.583572,405.001312 
	C132.120590,406.674072 132.930252,408.021332 132.926575,409.366364 
	C132.889679,422.839996 132.780731,436.314362 132.547272,449.786011 
	C132.480225,453.654907 133.249161,456.403442 138.410980,456.316040 
	C138.941574,456.874390 139.472183,457.432709 140.147095,458.741821 
M240.199997,230.925781 
	C238.208466,230.613495 236.025574,230.719147 234.260986,229.911209 
	C228.782562,227.402847 223.462967,224.547577 217.570816,221.326248 
	C210.337372,219.558975 203.162491,217.443375 195.838913,216.212402 
	C193.257233,215.778458 190.311798,217.508759 186.989563,218.395874 
	C190.693802,224.384491 195.760406,228.191605 194.857742,235.633453 
	C179.023407,235.633453 163.352600,235.633453 147.477203,235.633453 
	C149.530167,243.372543 155.174652,247.966385 161.813614,247.972565 
	C191.944473,248.000595 222.076843,247.872971 252.204819,248.179810 
	C257.694580,248.235718 260.360840,246.049408 262.351318,240.563843 
	C257.311310,237.377426 252.428543,233.992523 247.234436,231.183258 
	C245.619690,230.309906 243.161224,230.996475 240.199997,230.925781 
M594.101135,293.832764 
	C594.290283,301.056702 595.939331,303.709167 601.474670,303.620819 
	C607.739746,303.520844 614.097412,303.031433 620.220337,301.768524 
	C627.973389,300.169312 630.717712,295.876953 630.698608,287.738586 
	C630.636658,261.407379 630.543945,235.075821 630.663818,208.745331 
	C630.674011,206.502640 631.679504,203.884918 633.065186,202.092850 
	C639.536560,193.723434 639.508667,192.981628 630.502197,186.900024 
	C629.813782,186.435196 629.010620,186.105087 628.410461,185.550430 
	C621.243469,178.927063 613.575989,178.571320 605.035461,182.959091 
	C602.074890,184.480103 598.378113,185.159546 595.006897,185.194580 
	C571.679626,185.437103 548.347656,185.606232 525.020996,185.387939 
	C512.070129,185.266769 499.117676,184.504089 486.183716,183.732452 
	C479.822449,183.352921 473.501648,182.295456 468.272430,181.676208 
	C468.272430,190.747772 468.259277,198.857193 468.275482,206.966553 
	C468.300751,219.631805 468.514038,232.299179 468.351044,244.961838 
	C467.865051,282.712524 469.823456,320.523438 464.100250,358.122742 
	C458.619659,394.128510 447.573669,427.610168 423.440247,455.752899 
	C422.447815,456.910156 421.616394,458.205536 420.709991,459.436554 
	C422.476410,459.566132 423.615234,459.056702 424.691833,458.438812 
	C456.392456,440.244751 477.331940,413.170685 489.961395,379.258667 
	C497.684662,358.520599 501.035156,336.874847 503.895813,314.800995 
	C503.873199,313.178284 503.850616,311.555603 503.705902,309.076294 
	C503.846130,307.382019 503.986389,305.687744 504.882751,303.771210 
	C505.255920,299.835358 505.629059,295.899506 506.919434,291.756958 
	C535.602112,291.765259 564.284729,291.773560 593.166809,292.269714 
	C593.416260,292.509521 593.665710,292.749329 594.101135,293.832764 
M277.640656,207.932693 
	C257.753296,201.850952 238.334549,194.562439 218.095291,185.710571 
	C223.502914,183.146393 227.653488,181.452591 231.525085,179.265060 
	C235.373535,177.090622 235.118271,173.341522 231.194855,171.274078 
	C230.029617,170.660065 228.741104,170.239975 227.467239,169.878433 
	C216.757050,166.838837 206.001007,163.953033 195.345490,160.733948 
	C192.680634,159.928879 191.615479,161.010269 190.006409,162.706497 
	C179.374130,173.914566 169.223145,185.686310 157.736099,195.955261 
	C129.496460,221.200302 97.021454,240.055893 62.946835,256.273834 
	C61.563919,256.932037 60.240284,257.714783 58.889030,258.439514 
	C59.112732,258.900208 59.336433,259.360901 59.560135,259.821625 
	C114.179611,249.360519 163.665085,227.107971 208.146759,194.308807 
	C226.528091,206.057007 244.838821,217.808395 263.199524,229.481110 
	C280.534088,240.501450 299.122101,248.900589 318.534241,255.501083 
	C324.506927,257.531921 327.456055,256.317596 331.647675,251.507736 
	C336.012756,246.498871 340.738220,241.805923 345.186584,236.867172 
	C348.050781,233.687210 350.699402,230.313110 353.212463,227.304077 
	C327.611053,220.731049 303.016602,214.416550 277.640656,207.932693 
M578.102600,396.397522 
	C579.967712,399.542877 581.791504,402.713531 583.704651,405.829346 
	C594.849304,423.979584 608.487061,440.002502 624.840210,453.663727 
	C632.048706,459.685608 636.292114,459.234344 642.212158,452.375885 
	C645.037231,449.102966 648.085999,446.022095 651.056030,442.875519 
	C656.792542,436.798004 662.545166,430.735626 668.621948,424.317474 
	C642.870850,411.955231 620.818176,396.029175 602.507019,375.417694 
	C584.156677,354.762054 569.203186,331.987000 563.467712,304.862823 
	C557.262634,304.509766 551.257263,304.168030 544.806824,303.801025 
	C552.226135,335.437622 561.414917,366.847595 578.102600,396.397522 
M379.990723,381.704895 
	C376.897552,382.773987 373.804352,383.843079 370.308105,385.051514 
	C381.785767,408.902985 381.915527,433.712280 376.276428,459.865051 
	C378.116272,458.753571 378.965271,458.339081 379.704407,457.779480 
	C392.777618,447.882538 402.929230,435.498688 410.988129,421.279785 
	C423.506073,399.193420 431.237244,375.440857 435.995667,350.613342 
	C439.190155,333.945923 441.762054,317.231720 440.186432,299.630371 
	C438.331299,300.579193 436.569031,301.761688 435.895325,303.393585 
	C432.097198,312.593872 429.213318,322.226257 424.803436,331.108398 
	C414.589203,351.681335 400.997070,369.536743 379.990723,381.704895 
M378.478241,259.951416 
	C379.238159,261.236328 379.945557,262.555878 380.766205,263.800781 
	C388.183655,275.053162 395.416809,286.600555 408.102203,292.718597 
	C411.616882,294.413696 416.186279,295.704742 419.843903,294.990387 
	C431.366486,292.739868 436.465271,282.079529 432.368927,270.284088 
	C429.599609,262.309875 424.439850,256.189362 417.427856,251.547882 
	C403.776581,242.511566 388.547668,240.170380 371.388489,240.241165 
	C373.851227,247.220779 375.981812,253.259094 378.478241,259.951416 
M424.949249,183.518906 
	C413.027191,177.182465 400.246857,174.346466 386.723206,173.732300 
	C386.641693,174.628784 386.557281,175.095139 386.563171,175.560349 
	C386.713776,187.517090 392.918610,197.053101 399.298828,206.374146 
	C404.843353,214.474380 410.837830,222.294754 419.933258,226.937759 
	C426.665436,230.374374 433.088409,230.014359 439.072083,225.376846 
	C445.255859,220.584198 445.946259,213.993484 444.530396,206.927597 
	C442.322113,195.907211 434.968658,189.050507 424.949249,183.518906 
z"/>
<path fill="#FAFAFB" opacity="1.000000" stroke="none" 
	d="
M503.217682,314.990967 
	C501.035156,336.874847 497.684662,358.520599 489.961395,379.258667 
	C477.331940,413.170685 456.392456,440.244751 424.691833,458.438812 
	C423.615234,459.056702 422.476410,459.566132 420.709991,459.436554 
	C421.616394,458.205536 422.447815,456.910156 423.440247,455.752899 
	C447.573669,427.610168 458.619659,394.128510 464.100250,358.122742 
	C469.823456,320.523438 467.865051,282.712524 468.351044,244.961838 
	C468.514038,232.299179 468.300751,219.631805 468.275482,206.966553 
	C468.259277,198.857193 468.272430,190.747772 468.272430,181.676208 
	C473.501648,182.295456 479.822449,183.352921 486.183716,183.732452 
	C499.117676,184.504089 512.070129,185.266769 525.020996,185.387939 
	C548.347656,185.606232 571.679626,185.437103 595.006897,185.194580 
	C598.378113,185.159546 602.074890,184.480103 605.035461,182.959091 
	C613.575989,178.571320 621.243469,178.927063 628.410461,185.550430 
	C629.010620,186.105087 629.813782,186.435196 630.502197,186.900024 
	C639.508667,192.981628 639.536560,193.723434 633.065186,202.092850 
	C631.679504,203.884918 630.674011,206.502640 630.663818,208.745331 
	C630.543945,235.075821 630.636658,261.407379 630.698608,287.738586 
	C630.717712,295.876953 627.973389,300.169312 620.220337,301.768524 
	C614.097412,303.031433 607.739746,303.520844 601.474670,303.620819 
	C595.939331,303.709167 594.290283,301.056702 594.051636,293.073547 
	C593.657288,292.136871 593.312317,291.959351 592.967407,291.781860 
	C564.284729,291.773560 535.602112,291.765259 506.026855,291.793121 
	C504.798431,295.884003 504.462555,299.938751 504.126648,303.993469 
	C503.986389,305.687744 503.846130,307.382019 503.526245,309.790710 
	C503.303619,312.000427 503.260651,313.495697 503.217682,314.990967 
M504.421631,202.836594 
	C504.374786,215.271057 504.270477,227.705643 504.297913,240.139954 
	C504.323456,251.731964 504.489075,263.323669 504.381683,275.515045 
	C504.466644,275.709167 504.551575,275.903320 505.123138,276.871185 
	C534.666443,276.871185 564.209717,276.871185 593.642822,276.871185 
	C593.642822,251.235016 593.642822,226.170639 593.642822,201.055908 
	C564.214050,201.055908 535.102539,201.055908 505.294861,200.964157 
	C505.115570,201.329666 504.936249,201.695160 504.421631,202.836594 
z"/>
<path fill="#F9F9F9" opacity="1.000000" stroke="none" 
	d="
M73.887260,437.746216 
	C69.223259,440.457489 64.559250,443.168732 59.895241,445.880005 
	C59.460304,445.592896 59.025368,445.305786 58.590431,445.018646 
	C106.909203,392.259644 119.038460,328.870636 114.033150,259.392548 
	C118.658424,259.748718 123.365067,260.057983 128.061096,260.484131 
	C137.153168,261.309326 146.234344,262.879608 155.328690,262.945374 
	C192.818695,263.216431 230.312241,263.096710 267.803314,262.901031 
	C270.379822,262.887573 273.140320,261.404938 275.480896,260.034515 
	C281.659424,256.416840 287.632843,255.061340 293.937866,259.747955 
	C297.800812,262.619354 301.946564,265.107269 305.872559,267.897888 
	C308.726959,269.926758 309.953278,272.539215 306.781311,275.204346 
	C302.181610,279.069122 301.838745,284.005981 301.934814,289.527863 
	C302.181213,303.686798 301.775421,317.857788 302.070618,332.014771 
	C302.172607,336.905121 300.105377,339.911865 296.311859,342.154022 
	C288.116241,346.998016 278.992798,345.967987 270.076721,345.938416 
	C269.032410,345.934937 267.992889,344.491089 266.834625,342.999268 
	C265.497711,341.598480 264.278595,340.317352 263.056732,340.314728 
	C224.284531,340.230835 185.511932,340.246368 146.740082,340.407532 
	C145.539551,340.412567 144.346069,342.122009 143.149307,343.036865 
	C141.353531,347.998322 139.557739,352.959808 137.628632,358.289581 
	C139.067398,358.493988 140.153732,358.648315 141.565140,359.240540 
	C140.594666,360.785675 139.299118,361.892883 137.887268,362.692780 
	C137.524841,361.729462 137.278748,361.073456 136.788269,359.766022 
	C129.785172,377.076965 120.588432,392.119690 109.154182,405.805145 
	C98.885986,418.094971 86.797592,428.374115 73.887260,437.746216 
M265.643738,327.082092 
	C265.767242,326.720459 265.890717,326.358795 266.199646,325.076324 
	C266.199646,318.987549 266.199646,312.898773 266.199646,307.108948 
	C227.048965,307.108948 188.616043,307.108948 150.283554,307.108948 
	C149.202515,313.611572 148.171143,319.815582 146.962708,326.641541 
	C147.312531,326.782318 147.662369,326.923065 148.923813,327.291687 
	C181.645615,327.285400 214.367432,327.291748 247.089203,327.261292 
	C253.058823,327.255737 259.028290,327.100006 265.643738,327.082092 
M154.656448,276.180023 
	C153.403030,276.280029 152.149597,276.380035 150.937744,276.476715 
	C150.937744,282.802490 150.937744,288.734039 150.937744,294.792847 
	C189.451385,294.792847 227.760422,294.792847 265.982758,294.792847 
	C265.982758,288.508850 265.982758,282.565582 265.982758,276.177124 
	C229.056412,276.177124 192.341675,276.177124 154.656448,276.180023 
z"/>
<path fill="#FFFEFF" opacity="1.000000" stroke="none" 
	d="
M138.003586,363.000092 
	C139.299118,361.892883 140.594666,360.785675 141.945435,359.350159 
	C147.040726,359.393311 152.080795,359.764740 157.896332,360.260620 
	C162.464722,360.776459 166.256516,361.494995 170.050720,361.507965 
	C202.831100,361.619995 235.613892,361.416840 268.391144,361.763214 
	C276.350372,361.847321 283.470428,360.460480 290.001129,356.003357 
	C297.517365,353.213837 303.422119,357.114410 309.381226,360.708252 
	C311.216736,361.815308 312.961456,363.072906 314.933655,364.950684 
	C316.309692,366.337341 317.499786,367.034851 318.689911,367.732391 
	C321.718445,370.537567 318.750793,372.557739 317.285431,373.866455 
	C313.552094,377.200684 312.771515,381.076080 312.820862,385.846741 
	C313.024078,405.506744 312.888306,425.170258 312.876678,444.832458 
	C312.871979,452.743347 309.992279,456.571320 302.080292,457.761719 
	C296.183228,458.648956 290.147858,458.957306 284.182892,458.876434 
	C281.970764,458.846436 279.783661,456.972137 277.751526,455.451965 
	C277.652100,453.975464 277.386322,452.985901 277.037750,451.564514 
	C276.954926,449.343933 276.954926,447.555237 276.954926,445.676636 
	C241.853470,445.676636 207.229446,445.676636 172.546417,445.676636 
	C172.362061,448.384003 172.204575,450.697052 172.047073,453.010101 
	C172.047073,453.010101 171.809860,453.237488 171.504791,453.561401 
	C161.894043,460.872375 151.509995,459.881622 140.995056,457.592926 
	C139.902603,456.151550 138.816208,455.084534 137.576614,453.580078 
	C137.387680,449.655548 137.296982,446.168030 137.324966,442.681458 
	C137.538132,416.120911 137.774475,389.560516 138.003586,363.000092 
M277.650513,385.892303 
	C277.427490,384.928375 277.204468,383.964417 276.755035,382.195251 
	C276.488464,379.915741 276.221863,377.636230 275.075928,375.029022 
	C251.719543,374.936157 228.363159,374.843292 204.971024,374.301666 
	C204.812698,374.074432 204.654373,373.847168 204.496048,373.619934 
	C204.328323,373.996765 204.160599,374.373596 203.070404,374.921021 
	C193.374832,374.989258 183.679276,375.057495 173.369232,374.999146 
	C173.230164,375.335571 173.091080,375.671997 172.717377,376.918213 
	C172.743988,382.933075 172.770599,388.947968 172.734695,395.726532 
	C173.170090,395.877411 173.605484,396.028290 174.942368,396.420654 
	C179.621780,396.538177 184.301208,396.655670 189.184982,397.253326 
	C190.130997,397.094604 191.077011,396.935883 192.913361,396.485809 
	C200.377686,396.448517 207.842026,396.415405 215.306320,396.373169 
	C235.203552,396.260559 255.100739,396.144043 275.838745,396.096741 
	C276.221588,392.731049 276.604431,389.365326 277.650513,385.892303 
M247.803070,407.209320 
	C242.851501,406.924194 237.901016,406.610077 232.945694,406.426575 
	C232.650284,406.415649 232.316132,407.451660 231.120514,408.215302 
	C228.413788,408.140015 225.707062,408.064728 222.802841,407.207245 
	C218.497253,406.827240 214.195496,406.367279 209.881607,406.159790 
	C209.285141,406.131104 208.628571,407.351990 207.133240,408.216766 
	C204.755432,408.146729 202.377640,408.076660 199.805008,407.219971 
	C199.302643,406.844421 198.805237,406.149719 198.297134,406.141815 
	C191.994019,406.043671 185.687820,405.974243 179.386993,406.109497 
	C178.578171,406.126862 177.795059,407.341278 176.201111,408.193848 
	C173.997498,407.967743 172.428680,408.139465 172.566666,411.169312 
	C172.867615,417.777191 172.839920,424.399994 173.267334,431.849243 
	C175.253845,431.920166 177.240112,432.045319 179.226883,432.053711 
	C200.481659,432.143494 221.736481,432.214813 243.154953,432.917603 
	C244.439560,432.705597 245.724182,432.493591 247.922073,432.104340 
	C252.278915,432.153778 256.635742,432.203217 261.231506,432.985443 
	C264.926117,434.167511 268.630402,435.484283 272.785370,432.042755 
	C273.837830,431.961792 274.890320,431.880829 276.717621,431.465302 
	C276.837219,426.310944 276.956787,421.156555 277.745789,415.860626 
	C279.579712,414.218201 279.648071,412.880432 276.893311,411.209442 
	C276.729187,405.604736 272.091370,409.480438 269.797089,407.180359 
	C265.822876,406.789917 261.853821,406.260956 257.870575,406.111786 
	C256.938324,406.076843 255.957916,407.328156 254.141876,408.187805 
	C252.094666,408.122681 250.047455,408.057556 247.803070,407.209320 
z"/>
<path fill="#FBFBFC" opacity="1.000000" stroke="none" 
	d="
M278.031433,208.017380 
	C303.016602,214.416550 327.611053,220.731049 353.212463,227.304077 
	C350.699402,230.313110 348.050781,233.687210 345.186584,236.867172 
	C340.738220,241.805923 336.012756,246.498871 331.647675,251.507736 
	C327.456055,256.317596 324.506927,257.531921 318.534241,255.501083 
	C299.122101,248.900589 280.534088,240.501450 263.199524,229.481110 
	C244.838821,217.808395 226.528091,206.057007 208.146759,194.308807 
	C163.665085,227.107971 114.179611,249.360519 59.560135,259.821625 
	C59.336433,259.360901 59.112732,258.900208 58.889030,258.439514 
	C60.240284,257.714783 61.563919,256.932037 62.946835,256.273834 
	C97.021454,240.055893 129.496460,221.200302 157.736099,195.955261 
	C169.223145,185.686310 179.374130,173.914566 190.006409,162.706497 
	C191.615479,161.010269 192.680634,159.928879 195.345490,160.733948 
	C206.001007,163.953033 216.757050,166.838837 227.467239,169.878433 
	C228.741104,170.239975 230.029617,170.660065 231.194855,171.274078 
	C235.118271,173.341522 235.373535,177.090622 231.525085,179.265060 
	C227.653488,181.452591 223.502914,183.146393 218.095291,185.710571 
	C238.334549,194.562439 257.753296,201.850952 278.031433,208.017380 
z"/>
<path fill="#FCFCFD" opacity="1.000000" stroke="none" 
	d="
M577.957886,396.059570 
	C561.414917,366.847595 552.226135,335.437622 544.806824,303.801025 
	C551.257263,304.168030 557.262634,304.509766 563.467712,304.862823 
	C569.203186,331.987000 584.156677,354.762054 602.507019,375.417694 
	C620.818176,396.029175 642.870850,411.955231 668.621948,424.317474 
	C662.545166,430.735626 656.792542,436.798004 651.056030,442.875519 
	C648.085999,446.022095 645.037231,449.102966 642.212158,452.375885 
	C636.292114,459.234344 632.048706,459.685608 624.840210,453.663727 
	C608.487061,440.002502 594.849304,423.979584 583.704651,405.829346 
	C581.791504,402.713531 579.967712,399.542877 577.957886,396.059570 
z"/>
<path fill="#FCFBFC" opacity="1.000000" stroke="none" 
	d="
M380.306366,381.494812 
	C400.997070,369.536743 414.589203,351.681335 424.803436,331.108398 
	C429.213318,322.226257 432.097198,312.593872 435.895325,303.393585 
	C436.569031,301.761688 438.331299,300.579193 440.186432,299.630371 
	C441.762054,317.231720 439.190155,333.945923 435.995667,350.613342 
	C431.237244,375.440857 423.506073,399.193420 410.988129,421.279785 
	C402.929230,435.498688 392.777618,447.882538 379.704407,457.779480 
	C378.965271,458.339081 378.116272,458.753571 376.276428,459.865051 
	C381.915527,433.712280 381.785767,408.902985 370.308105,385.051514 
	C373.804352,383.843079 376.897552,382.773987 380.306366,381.494812 
z"/>
<path fill="#FBFBFC" opacity="1.000000" stroke="none" 
	d="
M378.295349,259.624390 
	C375.981812,253.259094 373.851227,247.220779 371.388489,240.241165 
	C388.547668,240.170380 403.776581,242.511566 417.427856,251.547882 
	C424.439850,256.189362 429.599609,262.309875 432.368927,270.284088 
	C436.465271,282.079529 431.366486,292.739868 419.843903,294.990387 
	C416.186279,295.704742 411.616882,294.413696 408.102203,292.718597 
	C395.416809,286.600555 388.183655,275.053162 380.766205,263.800781 
	C379.945557,262.555878 379.238159,261.236328 378.295349,259.624390 
z"/>
<path fill="#FCFBFC" opacity="1.000000" stroke="none" 
	d="
M425.265442,183.709930 
	C434.968658,189.050507 442.322113,195.907211 444.530396,206.927597 
	C445.946259,213.993484 445.255859,220.584198 439.072083,225.376846 
	C433.088409,230.014359 426.665436,230.374374 419.933258,226.937759 
	C410.837830,222.294754 404.843353,214.474380 399.298828,206.374146 
	C392.918610,197.053101 386.713776,187.517090 386.563171,175.560349 
	C386.557281,175.095139 386.641693,174.628784 386.723206,173.732300 
	C400.246857,174.346466 413.027191,177.182465 425.265442,183.709930 
z"/>
<path fill="#FAF9FA" opacity="1.000000" stroke="none" 
	d="
M241.089020,230.968903 
	C243.161224,230.996475 245.619690,230.309906 247.234436,231.183258 
	C252.428543,233.992523 257.311310,237.377426 262.351318,240.563843 
	C260.360840,246.049408 257.694580,248.235718 252.204819,248.179810 
	C222.076843,247.872971 191.944473,248.000595 161.813614,247.972565 
	C155.174652,247.966385 149.530167,243.372543 147.477203,235.633453 
	C163.352600,235.633453 179.023407,235.633453 194.857742,235.633453 
	C195.760406,228.191605 190.693802,224.384491 186.989563,218.395874 
	C190.311798,217.508759 193.257233,215.778458 195.838913,216.212402 
	C203.162491,217.443375 210.337372,219.558975 217.841309,221.955658 
	C218.028397,226.911087 222.760056,227.373978 224.232193,230.101166 
	C226.209030,233.763275 228.919708,234.601334 232.301971,233.934402 
	C235.308990,233.341446 238.165878,231.987152 241.089020,230.968903 
z"/>
<path fill="#111111" opacity="1.000000" stroke="none" 
	d="
M137.887268,362.692780 
	C137.774475,389.560516 137.538132,416.120911 137.324966,442.681458 
	C137.296982,446.168030 137.387680,449.655548 137.500946,453.916107 
	C137.687408,455.134308 137.796326,455.579010 137.905258,456.023712 
	C133.249161,456.403442 132.480225,453.654907 132.547272,449.786011 
	C132.780731,436.314362 132.889679,422.839996 132.926575,409.366364 
	C132.930252,408.021332 132.120590,406.674072 131.583572,405.001312 
	C125.400879,408.282043 122.330170,413.262634 122.551491,419.288055 
	C122.944740,429.994354 115.099045,434.566528 108.252914,439.663177 
	C103.927673,442.883179 98.749214,445.150055 93.671936,447.118195 
	C87.275276,449.597748 82.743118,447.404846 81.123207,440.906128 
	C79.888626,435.953339 76.052399,440.479858 74.105881,438.045776 
	C86.797592,428.374115 98.885986,418.094971 109.154182,405.805145 
	C120.588432,392.119690 129.785172,377.076965 136.788269,359.766022 
	C137.278748,361.073456 137.524841,361.729462 137.887268,362.692780 
M112.502869,416.752258 
	C112.139198,415.544525 111.775528,414.336761 111.411858,413.129028 
	C109.248665,413.975494 106.944717,414.594727 105.002327,415.797729 
	C104.364037,416.193024 104.662567,418.100922 104.532715,419.317139 
	C106.241623,419.259155 107.984802,419.382629 109.645424,419.069000 
	C110.515831,418.904602 111.241455,417.973663 112.502869,416.752258 
M123.807228,392.415070 
	C123.802811,392.793762 123.798401,393.172424 123.793991,393.551117 
	C123.951103,393.552826 124.244774,393.565155 124.245590,393.554657 
	C124.275017,393.177887 124.277100,392.798981 123.807228,392.415070 
z"/>
<path fill="#111111" opacity="1.000000" stroke="none" 
	d="
M289.790436,355.761780 
	C283.470428,360.460480 276.350372,361.847321 268.391144,361.763214 
	C235.613892,361.416840 202.831100,361.619995 170.050720,361.507965 
	C166.256516,361.494995 162.464722,360.776459 158.329407,360.213470 
	C159.509995,359.923920 161.033035,359.806671 162.555939,359.687805 
	C166.954590,359.344543 171.354660,359.018005 175.751144,358.649048 
	C177.717804,358.484039 179.871277,357.597321 181.607758,358.127045 
	C191.164719,361.042572 200.810196,358.738647 210.396378,358.960632 
	C230.493500,359.425964 250.615906,359.253571 270.685089,360.226624 
	C277.814850,360.572357 283.299316,357.074463 289.790436,355.761780 
z"/>
<path fill="#393938" opacity="1.000000" stroke="none" 
	d="
M143.572144,342.999878 
	C144.346069,342.122009 145.539551,340.412567 146.740082,340.407532 
	C185.511932,340.246368 224.284531,340.230835 263.056732,340.314728 
	C264.278595,340.317352 265.497711,341.598480 266.659058,342.682495 
	C263.333008,342.656250 260.067078,341.872040 256.798859,341.862244 
	C227.644928,341.774750 198.490189,341.741760 169.336609,341.884491 
	C160.887848,341.925842 152.442108,342.586273 143.572144,342.999878 
z"/>
<path fill="#323232" opacity="1.000000" stroke="none" 
	d="
M172.400818,452.905151 
	C172.204575,450.697052 172.362061,448.384003 172.546417,445.676636 
	C207.229446,445.676636 241.853470,445.676636 276.954926,445.676636 
	C276.954926,447.555237 276.954926,449.343933 276.952515,451.940125 
	C276.916626,453.516418 276.883118,454.285217 276.849609,455.054047 
	C276.289734,454.329437 275.158539,453.512573 275.258362,452.894531 
	C276.245392,446.785004 272.584198,446.782074 268.120941,446.801086 
	C239.708374,446.922241 211.294678,446.927887 182.882233,446.789612 
	C178.050278,446.766083 173.662186,446.613495 172.400818,452.905151 
z"/>
<path fill="#DDDBDA" opacity="1.000000" stroke="none" 
	d="
M240.644501,230.947357 
	C238.165878,231.987152 235.308990,233.341446 232.301971,233.934402 
	C228.919708,234.601334 226.209030,233.763275 224.232193,230.101166 
	C222.760056,227.373978 218.028397,226.911087 218.096771,222.205978 
	C223.462967,224.547577 228.782562,227.402847 234.260986,229.911209 
	C236.025574,230.719147 238.208466,230.613495 240.644501,230.947357 
z"/>
<path fill="#111111" opacity="1.000000" stroke="none" 
	d="
M141.001099,457.967255 
	C151.509995,459.881622 161.894043,460.872375 171.521851,453.724792 
	C172.284882,456.216248 171.453400,457.126373 168.601105,458.303040 
	C161.111069,461.392853 153.473648,461.072235 145.790588,460.891479 
	C143.893600,460.846863 142.027435,459.493561 140.324829,458.373016 
	C140.502548,458.004211 141.001099,457.967255 141.001099,457.967255 
z"/>
<path fill="#060505" opacity="1.000000" stroke="none" 
	d="
M504.504700,303.882324 
	C504.462555,299.938751 504.798431,295.884003 505.568237,291.896484 
	C505.629059,295.899506 505.255920,299.835358 504.504700,303.882324 
z"/>
<path fill="#060505" opacity="1.000000" stroke="none" 
	d="
M503.556763,314.895996 
	C503.260651,313.495697 503.303619,312.000427 503.587311,310.219025 
	C503.850616,311.555603 503.873199,313.178284 503.556763,314.895996 
z"/>
<path fill="#F9F9F9" opacity="1.000000" stroke="none" 
	d="
M140.995056,457.592926 
	C141.001099,457.967255 140.502548,458.004211 140.252670,457.997620 
	C139.472183,457.432709 138.941574,456.874390 138.158112,456.169861 
	C137.796326,455.579010 137.687408,455.134308 137.654144,454.353577 
	C138.816208,455.084534 139.902603,456.151550 140.995056,457.592926 
z"/>
<path fill="#F9F9F9" opacity="1.000000" stroke="none" 
	d="
M318.526825,367.433807 
	C317.499786,367.034851 316.309692,366.337341 315.086578,365.250427 
	C316.156982,365.619080 317.260345,366.377167 318.526825,367.433807 
z"/>
<path fill="#F9F9F9" opacity="1.000000" stroke="none" 
	d="
M276.941254,455.120239 
	C276.883118,454.285217 276.916626,453.516418 277.035339,452.371948 
	C277.386322,452.985901 277.652100,453.975464 277.583679,455.108154 
	C277.249512,455.251221 277.032898,455.186401 276.941254,455.120239 
z"/>
<path fill="#060505" opacity="1.000000" stroke="none" 
	d="
M593.067139,292.025787 
	C593.312317,291.959351 593.657288,292.136871 593.958679,292.651733 
	C593.665710,292.749329 593.416260,292.509521 593.067139,292.025787 
z"/>
<path fill="#111111" opacity="1.000000" stroke="none" 
	d="
M504.593079,274.915527 
	C504.489075,263.323669 504.323456,251.731964 504.297913,240.139954 
	C504.270477,227.705643 504.374786,215.271057 504.837433,202.335693 
	C505.499176,201.575150 505.745117,201.315521 505.991058,201.055908 
	C535.102539,201.055908 564.214050,201.055908 593.642822,201.055908 
	C593.642822,226.170639 593.642822,251.235016 593.642822,276.871185 
	C564.209717,276.871185 534.666443,276.871185 505.083282,276.366821 
	C504.893311,275.546814 504.743195,275.231171 504.593079,274.915527 
z"/>
<path fill="#020202" opacity="1.000000" stroke="none" 
	d="
M504.487366,275.215271 
	C504.743195,275.231171 504.893311,275.546814 504.839966,275.979950 
	C504.551575,275.903320 504.466644,275.709167 504.487366,275.215271 
z"/>
<path fill="#020202" opacity="1.000000" stroke="none" 
	d="
M505.642944,201.010040 
	C505.745117,201.315521 505.499176,201.575150 505.005066,201.947723 
	C504.936249,201.695160 505.115570,201.329666 505.642944,201.010040 
z"/>
<path fill="#0F0F0F" opacity="1.000000" stroke="none" 
	d="
M147.139755,326.019592 
	C148.171143,319.815582 149.202515,313.611572 150.283554,307.108948 
	C188.616043,307.108948 227.048965,307.108948 266.199646,307.108948 
	C266.199646,312.898773 266.199646,318.987549 265.888123,325.651672 
	C265.303406,326.430145 265.110474,326.692352 264.997833,327.013641 
	C259.028290,327.100006 253.058823,327.255737 247.089203,327.261292 
	C214.367432,327.291748 181.645615,327.285400 148.371475,326.965820 
	C147.656982,326.362732 147.430527,326.155945 147.139755,326.019592 
z"/>
<path fill="#111111" opacity="1.000000" stroke="none" 
	d="
M155.141693,276.178589 
	C192.341675,276.177124 229.056412,276.177124 265.982758,276.177124 
	C265.982758,282.565582 265.982758,288.508850 265.982758,294.792847 
	C227.760422,294.792847 189.451385,294.792847 150.937744,294.792847 
	C150.937744,288.734039 150.937744,282.802490 150.937744,276.476715 
	C152.149597,276.380035 153.403030,276.280029 155.141693,276.178589 
z"/>
<path fill="#020202" opacity="1.000000" stroke="none" 
	d="
M265.320801,327.047852 
	C265.110474,326.692352 265.303406,326.430145 265.795410,326.112061 
	C265.890717,326.358795 265.767242,326.720459 265.320801,327.047852 
z"/>
<path fill="#020202" opacity="1.000000" stroke="none" 
	d="
M147.051239,326.330566 
	C147.430527,326.155945 147.656982,326.362732 147.915665,326.851868 
	C147.662369,326.923065 147.312531,326.782318 147.051239,326.330566 
z"/>
<path fill="#111111" opacity="1.000000" stroke="none" 
	d="
M275.942780,431.799866 
	C274.890320,431.880829 273.837830,431.961792 271.944641,432.037659 
	C267.733490,432.105927 264.363037,432.179291 260.992584,432.252625 
	C256.635742,432.203217 252.278915,432.153778 247.069763,432.101837 
	C245.142075,432.163269 244.066696,432.227234 242.991302,432.291199 
	C221.736481,432.214813 200.481659,432.143494 179.226883,432.053711 
	C177.240112,432.045319 175.253845,431.920166 173.363373,431.108765 
	C173.601990,424.897919 173.876907,419.426544 173.834351,413.957642 
	C173.811172,410.981415 174.811340,409.838928 177.877594,409.846405 
	C208.668060,409.921356 239.458862,409.925385 270.249298,409.848083 
	C273.973907,409.838745 275.158051,411.391327 275.175690,414.956512 
	C275.203491,420.572113 275.664948,426.185516 275.942780,431.799866 
z"/>
<path fill="#111111" opacity="1.000000" stroke="none" 
	d="
M274.997955,396.029114 
	C255.100739,396.144043 235.203552,396.260559 215.306320,396.373169 
	C207.842026,396.415405 200.377686,396.448517 192.102966,396.479492 
	C190.521912,396.573212 189.751266,396.673218 188.980621,396.773193 
	C184.301208,396.655670 179.621780,396.538177 174.350525,396.036102 
	C173.438187,395.421967 173.117706,395.192383 172.797226,394.962830 
	C172.770599,388.947968 172.743988,382.933075 173.045883,376.365845 
	C173.648819,375.647430 173.851929,375.418182 173.983704,375.125732 
	C183.679276,375.057495 193.374832,374.989258 203.785110,374.917297 
	C204.668808,374.859161 204.837784,374.804779 205.006775,374.750427 
	C228.363159,374.843292 251.719543,374.936157 275.326019,375.540649 
	C275.383392,382.711243 275.190674,389.370178 274.997955,396.029114 
z"/>
<path fill="#303030" opacity="1.000000" stroke="none" 
	d="
M276.330200,431.632568 
	C275.664948,426.185516 275.203491,420.572113 275.175690,414.956512 
	C275.158051,411.391327 273.973907,409.838745 270.249298,409.848083 
	C239.458862,409.925385 208.668060,409.921356 177.877594,409.846405 
	C174.811340,409.838928 173.811172,410.981415 173.834351,413.957642 
	C173.876907,419.426544 173.601990,424.897919 173.202957,430.692505 
	C172.839920,424.399994 172.867615,417.777191 172.566666,411.169312 
	C172.428680,408.139465 173.997498,407.967743 177.056778,408.213837 
	C185.274902,408.158081 192.637375,408.082336 199.999832,408.006592 
	C202.377640,408.076660 204.755432,408.146729 208.024231,408.201233 
	C213.610275,408.120270 218.305298,408.054840 223.000336,407.989441 
	C225.707062,408.064728 228.413788,408.140015 232.017227,408.211548 
	C237.942703,408.136017 242.971481,408.064209 248.000244,407.992432 
	C250.047455,408.057556 252.094666,408.122681 255.026581,408.193726 
	C260.607941,408.118835 265.304596,408.038025 270.001251,407.957214 
	C272.091370,409.480438 276.729187,405.604736 276.891754,411.997375 
	C276.952271,413.857635 277.014313,414.929901 277.076355,416.002197 
	C276.956787,421.156555 276.837219,426.310944 276.330200,431.632568 
z"/>
<path fill="#F9F9F9" opacity="1.000000" stroke="none" 
	d="
M199.902420,407.613281 
	C192.637375,408.082336 185.274902,408.158081 177.456238,408.117493 
	C177.795059,407.341278 178.578171,406.126862 179.386993,406.109497 
	C185.687820,405.974243 191.994019,406.043671 198.297134,406.141815 
	C198.805237,406.149719 199.302643,406.844421 199.902420,407.613281 
z"/>
<path fill="#060505" opacity="1.000000" stroke="none" 
	d="
M275.418335,396.062927 
	C275.190674,389.370178 275.383392,382.711243 275.765686,375.704529 
	C276.221863,377.636230 276.488464,379.915741 276.752686,382.964050 
	C276.829285,384.488434 276.908264,385.244019 276.987244,385.999634 
	C276.604431,389.365326 276.221588,392.731049 275.418335,396.062927 
z"/>
<path fill="#F9F9F9" opacity="1.000000" stroke="none" 
	d="
M247.901657,407.600891 
	C242.971481,408.064209 237.942703,408.136017 232.456970,408.104187 
	C232.316132,407.451660 232.650284,406.415649 232.945694,406.426575 
	C237.901016,406.610077 242.851501,406.924194 247.901657,407.600891 
z"/>
<path fill="#F9F9F9" opacity="1.000000" stroke="none" 
	d="
M269.899170,407.568787 
	C265.304596,408.038025 260.607941,408.118835 255.455475,408.093689 
	C255.957916,407.328156 256.938324,406.076843 257.870575,406.111786 
	C261.853821,406.260956 265.822876,406.789917 269.899170,407.568787 
z"/>
<path fill="#F9F9F9" opacity="1.000000" stroke="none" 
	d="
M222.901581,407.598328 
	C218.305298,408.054840 213.610275,408.120270 208.457535,408.090027 
	C208.628571,407.351990 209.285141,406.131104 209.881607,406.159790 
	C214.195496,406.367279 218.497253,406.827240 222.901581,407.598328 
z"/>
<path fill="#F9F9F9" opacity="1.000000" stroke="none" 
	d="
M261.112061,432.619019 
	C264.363037,432.179291 267.733490,432.105927 271.555115,432.123322 
	C268.630402,435.484283 264.926117,434.167511 261.112061,432.619019 
z"/>
<path fill="#F9F9F9" opacity="1.000000" stroke="none" 
	d="
M277.411072,415.931396 
	C277.014313,414.929901 276.952271,413.857635 276.984680,412.391541 
	C279.648071,412.880432 279.579712,414.218201 277.411072,415.931396 
z"/>
<path fill="#F9F9F9" opacity="1.000000" stroke="none" 
	d="
M243.073120,432.604401 
	C244.066696,432.227234 245.142075,432.163269 246.613129,432.190460 
	C245.724182,432.493591 244.439560,432.705597 243.073120,432.604401 
z"/>
<path fill="#F9F9F9" opacity="1.000000" stroke="none" 
	d="
M189.082794,397.013245 
	C189.751266,396.673218 190.521912,396.573212 191.657791,396.625183 
	C191.077011,396.935883 190.130997,397.094604 189.082794,397.013245 
z"/>
<path fill="#F9F9F9" opacity="1.000000" stroke="none" 
	d="
M277.318878,385.945984 
	C276.908264,385.244019 276.829285,384.488434 276.865875,383.366638 
	C277.204468,383.964417 277.427490,384.928375 277.318878,385.945984 
z"/>
<path fill="#F9F9F9" opacity="1.000000" stroke="none" 
	d="
M204.988892,374.526031 
	C204.837784,374.804779 204.668808,374.859161 204.246338,374.831970 
	C204.160599,374.373596 204.328323,373.996765 204.496033,373.619934 
	C204.654373,373.847168 204.812698,374.074432 204.988892,374.526031 
z"/>
<path fill="#060505" opacity="1.000000" stroke="none" 
	d="
M172.765961,395.344666 
	C173.117706,395.192383 173.438187,395.421967 173.899780,395.915344 
	C173.605484,396.028290 173.170090,395.877411 172.765961,395.344666 
z"/>
<path fill="#060505" opacity="1.000000" stroke="none" 
	d="
M173.676468,375.062439 
	C173.851929,375.418182 173.648819,375.647430 173.163208,375.910950 
	C173.091080,375.671997 173.230164,375.335571 173.676468,375.062439 
z"/>
<path fill="#0F0F0F" opacity="1.000000" stroke="none" 
	d="
M112.267670,417.070557 
	C111.241455,417.973663 110.515831,418.904602 109.645424,419.069000 
	C107.984802,419.382629 106.241623,419.259155 104.532715,419.317139 
	C104.662567,418.100922 104.364037,416.193024 105.002327,415.797729 
	C106.944717,414.594727 109.248665,413.975494 111.411858,413.129028 
	C111.775528,414.336761 112.139198,415.544525 112.267670,417.070557 
z"/>
<path fill="#0F0F0F" opacity="1.000000" stroke="none" 
	d="
M124.045105,392.417725 
	C124.277100,392.798981 124.275017,393.177887 124.245590,393.554657 
	C124.244774,393.565155 123.951103,393.552826 123.793991,393.551117 
	C123.798401,393.172424 123.802811,392.793762 124.045105,392.417725 
z"/>
</svg>